<svg width="33" height="34" viewBox="0 0 33 34" fill="none" xmlns="http://www.w3.org/2000/svg">
<circle cx="16.5" cy="17.5" r="9.5" stroke="currentColor" stroke-width="4"/>
<line x1="17" y1="2" x2="17" y2="7" stroke="currentColor" stroke-width="4" stroke-linecap="round"/>
<line x1="17" y1="27" x2="17" y2="32" stroke="currentColor" stroke-width="4" stroke-linecap="round"/>
<line x1="2" y1="-2" x2="7" y2="-2" transform="matrix(0.707107 -0.707107 -0.707107 -0.707107 21 10.364)" stroke="currentColor" stroke-width="4" stroke-linecap="round"/>
<line x1="9.53559" y1="10.364" x2="6.00005" y2="6.82842" stroke="currentColor" stroke-width="4" stroke-linecap="round"/>
<line x1="2" y1="-2" x2="7" y2="-2" transform="matrix(1 0 0 -1 0 15)" stroke="currentColor" stroke-width="4" stroke-linecap="round"/>
<line x1="2" y1="-2" x2="7" y2="-2" transform="matrix(1 0 0 -1 24 15)" stroke="currentColor" stroke-width="4" stroke-linecap="round"/>
<line x1="27.5356" y1="27.364" x2="24.0001" y2="23.8284" stroke="currentColor" stroke-width="4" stroke-linecap="round"/>
<line x1="2" y1="-2" x2="7" y2="-2" transform="matrix(0.707107 -0.707107 -0.707107 -0.707107 3 27.364)" stroke="currentColor" stroke-width="4" stroke-linecap="round"/>
</svg>
